# xmcd
#
# Track frame offsets:
#	150
#	13970
#	27570
#	38970
#	50285
#	62382
#	73280
#	85450
#	97372
#	110455
#	129180
#	142457
#	155650
#	166952
#	178345
#	189242
#	202097
#	217060
#	230150
#	243920
#
# Disc length: 3418 seconds
#
# Revision: 0
# Processed by: cddbd v1.5.2PL0 Copyright (c) Steve Scherf et al.
# Submitted via: EasyCDDAExtractor 2010.6.0.0
#
DISCID=3a0d5814
DTITLE=Campbell Glen - His Greatest Hits And Finest Performances Cd 1
DYEAR=1900
DGENRE=
TTITLE0=Rhinestone Cowboy
TTITLE1=Wichita Lineman
TTITLE2=Hey Little One
TTITLE3=Dream Baby
TTITLE4=By The Time I Get To Phoenix
TTITLE5=Try A Little Kindness
TTITLE6=I Wanna Live
TTITLE7=Galveston
TTITLE8=Where's The Playgound Susie
TTITLE9=Still Within The Sound Of My Voice
TTITLE10=Southern Nights
TTITLE11=Gentle On My Mind
TTITLE12=True Grit
TTITLE13=Dreams Of The Everyday Housewife
TTITLE14=It's Only Make Believe
TTITLE15=Sunflower
TTITLE16=Don't Pull Your Love/Then You Can Tell Me Goodbye
TTITLE17=Honey Come Back
TTITLE18=Country Boy (You've Got Your Feet In L.A.)
TTITLE19=Bonaparte's Retreat
EXTD=
EXTT0=
EXTT1=
EXTT2=
EXTT3=
EXTT4=
EXTT5=
EXTT6=
EXTT7=
EXTT8=
EXTT9=
EXTT10=
EXTT11=
EXTT12=
EXTT13=
EXTT14=
EXTT15=
EXTT16=
EXTT17=
EXTT18=
EXTT19=
PLAYORDER=
